<svg width="212" height="210" viewBox="0 0 212 210" fill="none" xmlns="http://www.w3.org/2000/svg">
<path d="M12.7156 115.82C11.3614 115.82 10.0203 115.664 8.69214 115.352C7.39006 115.039 6.14006 114.583 4.94214 113.984C3.74422 113.359 2.68953 112.539 1.77808 111.523C0.866618 110.508 0.371826 109.297 0.293701 107.891V105.664C0.293701 104.935 0.554118 104.336 1.07495 103.867C1.62183 103.372 2.25985 103.125 2.98901 103.125C4.55151 103.255 5.39787 104.102 5.52808 105.664V106.68C5.58016 107.487 5.87964 108.164 6.42651 108.711C6.99943 109.232 7.62443 109.648 8.30151 109.961C9.00464 110.273 9.72078 110.508 10.45 110.664C11.2052 110.82 11.9604 110.898 12.7156 110.898C13.4708 110.898 14.213 110.82 14.9421 110.664C15.6973 110.508 16.4135 110.273 17.0906 109.961C17.7937 109.648 18.4187 109.232 18.9656 108.711C19.5385 108.164 19.851 107.487 19.9031 106.68V93.7891C19.9031 93.0599 20.1635 92.4609 20.6843 91.9922C21.2312 91.4974 21.8692 91.25 22.5984 91.25C24.1609 91.3802 25.0203 92.2266 25.1765 93.7891V107.891C25.0984 109.297 24.5906 110.508 23.6531 111.523C22.7416 112.539 21.6869 113.359 20.489 113.984C19.2911 114.583 18.0281 115.039 16.7 115.352C15.3979 115.664 14.0697 115.82 12.7156 115.82Z" fill="#FF6565"/>
<path d="M37.9015 114.922C35.6098 114.844 33.8781 114.31 32.7062 113.32C31.5343 112.305 30.688 111.172 30.1671 109.922C29.6463 108.646 29.3859 107.357 29.3859 106.055C29.3859 104.701 29.6333 103.398 30.1281 102.148C30.6489 100.872 31.4953 99.7396 32.6671 98.75C33.8651 97.7344 35.3755 97.2135 37.1984 97.1875H49.8546C51.6776 97.2135 53.1749 97.7344 54.3468 98.75C55.5447 99.7396 56.3911 100.872 56.8859 102.148C57.4067 103.398 57.6671 104.701 57.6671 106.055C57.6671 107.357 57.4067 108.646 56.8859 109.922C56.3651 111.172 55.5187 112.305 54.3468 113.32C53.1749 114.31 51.4432 114.844 49.1515 114.922H37.9015ZM37.0421 102.422C36.5473 102.422 36.1177 102.63 35.7531 103.047C35.3885 103.438 35.1151 103.906 34.9328 104.453C34.7765 104.974 34.6984 105.495 34.6984 106.016C34.6984 106.562 34.7765 107.109 34.9328 107.656C35.1151 108.177 35.3885 108.646 35.7531 109.062C36.1177 109.453 36.5473 109.661 37.0421 109.688H50.0109C50.5057 109.661 50.9354 109.453 51.2999 109.062C51.6645 108.646 51.9249 108.177 52.0812 107.656C52.2635 107.109 52.3546 106.562 52.3546 106.016C52.3546 105.495 52.2635 104.974 52.0812 104.453C51.9249 103.906 51.6645 103.438 51.2999 103.047C50.9354 102.63 50.5057 102.422 50.0109 102.422H37.0421Z" fill="#FF6565"/>
<path d="M87.0328 94.4922C87.0328 95.2214 86.7723 95.8333 86.2515 96.3281C85.7567 96.849 85.1447 97.1094 84.4156 97.1094H68.7906C68.2958 97.1354 67.8791 97.2526 67.5406 97.4609C67.2281 97.6432 66.9937 97.8646 66.8374 98.125C66.6812 98.3594 66.6031 98.6068 66.6031 98.8672C66.6031 99.1276 66.6812 99.388 66.8374 99.6484C66.9937 99.8828 67.2281 100.104 67.5406 100.312C67.8791 100.495 68.2958 100.599 68.7906 100.625H79.8843C81.7072 100.677 83.2046 101.107 84.3765 101.914C85.5744 102.695 86.4208 103.607 86.9156 104.648C87.4364 105.664 87.6968 106.706 87.6968 107.773C87.6968 108.815 87.4364 109.857 86.9156 110.898C86.3947 111.914 85.5484 112.826 84.3765 113.633C83.2046 114.414 81.7072 114.805 79.8843 114.805H79.6499C79.4937 114.831 79.3374 114.844 79.1812 114.844H64.4156C63.6864 114.844 63.0614 114.596 62.5406 114.102C62.0458 113.581 61.7984 112.956 61.7984 112.227C61.7984 111.497 62.0588 110.885 62.5796 110.391C63.0744 109.87 63.6864 109.609 64.4156 109.609H80.1187C80.6135 109.635 81.0171 109.544 81.3296 109.336C81.6682 109.128 81.9156 108.893 82.0718 108.633C82.2281 108.346 82.3062 108.06 82.3062 107.773C82.3062 107.591 82.2281 107.344 82.0718 107.031C81.9156 106.693 81.6682 106.419 81.3296 106.211C81.0171 106.003 80.6135 105.885 80.1187 105.859H69.0249C67.202 105.807 65.6916 105.391 64.4937 104.609C63.3218 103.828 62.4755 102.943 61.9546 101.953C61.4598 100.938 61.2125 99.9089 61.2125 98.8672C61.2125 97.8516 61.4729 96.849 61.9937 95.8594C62.5145 94.8438 63.3609 93.9453 64.5328 93.1641C65.7046 92.3828 67.202 91.9661 69.0249 91.9141H69.2593C69.4156 91.888 69.5718 91.875 69.7281 91.875H84.4156C85.1447 91.875 85.7567 92.1354 86.2515 92.6562C86.7723 93.151 87.0328 93.763 87.0328 94.4922Z" fill="#FF6565"/>
<path d="M96.9453 118.32C96.789 119.883 95.9296 120.729 94.3671 120.859C93.638 120.859 93 120.612 92.4531 120.117C91.9322 119.648 91.6718 119.049 91.6718 118.32V99.7266C91.6979 98.9974 91.9713 98.3984 92.4921 97.9297C93.013 97.4349 93.638 97.1875 94.3671 97.1875H110.773C113.065 97.2656 114.797 97.8125 115.969 98.8281C117.141 99.8177 117.987 100.951 118.508 102.227C119.029 103.477 119.289 104.753 119.289 106.055C119.289 107.409 119.029 108.724 118.508 110C118.013 111.25 117.167 112.383 115.969 113.398C114.797 114.388 113.299 114.896 111.477 114.922H101.633C100.904 114.922 100.292 114.661 99.7968 114.141C99.276 113.646 99.0156 113.034 99.0156 112.305C99.0156 111.576 99.263 110.964 99.7578 110.469C100.279 109.948 100.904 109.688 101.633 109.688H111.633C112.128 109.688 112.557 109.492 112.922 109.102C113.286 108.685 113.547 108.216 113.703 107.695C113.885 107.148 113.977 106.615 113.977 106.094C113.977 105.547 113.885 105.013 113.703 104.492C113.547 103.945 113.286 103.477 112.922 103.086C112.557 102.669 112.128 102.448 111.633 102.422H97.9609C97.2838 102.448 96.9453 102.786 96.9453 103.438V118.32Z" fill="#FF6565"/>
<path d="M131.741 114.922C129.449 114.844 127.717 114.31 126.545 113.32C125.373 112.305 124.527 111.172 124.006 109.922C123.485 108.646 123.225 107.357 123.225 106.055C123.225 104.701 123.472 103.398 123.967 102.148C124.488 100.872 125.334 99.7396 126.506 98.75C127.704 97.7344 129.215 97.2135 131.037 97.1875H143.694C145.517 97.2135 147.014 97.7344 148.186 98.75C149.384 99.7396 150.23 100.872 150.725 102.148C151.246 103.398 151.506 104.701 151.506 106.055C151.506 107.357 151.246 108.646 150.725 109.922C150.204 111.172 149.358 112.305 148.186 113.32C147.014 114.31 145.282 114.844 142.991 114.922H131.741ZM130.881 102.422C130.386 102.422 129.957 102.63 129.592 103.047C129.228 103.438 128.954 103.906 128.772 104.453C128.616 104.974 128.537 105.495 128.537 106.016C128.537 106.562 128.616 107.109 128.772 107.656C128.954 108.177 129.228 108.646 129.592 109.062C129.957 109.453 130.386 109.661 130.881 109.688H143.85C144.345 109.661 144.774 109.453 145.139 109.062C145.504 108.646 145.764 108.177 145.92 107.656C146.103 107.109 146.194 106.562 146.194 106.016C146.194 105.495 146.103 104.974 145.92 104.453C145.764 103.906 145.504 103.438 145.139 103.047C144.774 102.63 144.345 102.422 143.85 102.422H130.881Z" fill="#FF6565"/>
<path d="M156.419 102.109C156.913 100.859 157.747 99.7396 158.919 98.75C160.117 97.7344 161.627 97.2135 163.45 97.1875H178.137C178.867 97.1875 179.479 97.4479 179.973 97.9688C180.494 98.4635 180.755 99.0755 180.755 99.8047C180.755 100.534 180.494 101.159 179.973 101.68C179.479 102.174 178.867 102.422 178.137 102.422H163.294C162.799 102.422 162.369 102.63 162.005 103.047C161.64 103.438 161.354 103.906 161.145 104.453C160.963 105 160.872 105.521 160.872 106.016V112.852C160.716 114.414 159.856 115.26 158.294 115.391C157.565 115.391 156.927 115.156 156.38 114.688C155.859 114.193 155.598 113.581 155.598 112.852V106.055H155.637C155.637 104.701 155.898 103.385 156.419 102.109Z" fill="#FF6565"/>
<path d="M192.698 91.25C193.428 91.25 194.053 91.4974 194.573 91.9922C195.094 92.4609 195.368 93.0599 195.394 93.7891V97.1875H208.675C209.404 97.1875 210.029 97.4349 210.55 97.9297C211.045 98.4505 211.292 99.0755 211.292 99.8047C211.292 100.534 211.032 101.159 210.511 101.68C210.016 102.174 209.404 102.422 208.675 102.422H195.394V103.203C195.368 104.271 195.433 105.26 195.589 106.172C195.771 107.057 196.188 107.852 196.839 108.555C197.49 109.258 198.31 109.635 199.3 109.688H208.831C209.56 109.714 210.159 109.987 210.628 110.508C211.123 111.029 211.37 111.654 211.37 112.383C211.344 113.086 211.084 113.685 210.589 114.18C210.12 114.648 209.534 114.896 208.831 114.922H197.972C196.149 114.818 194.638 114.206 193.441 113.086C192.269 111.94 191.422 110.547 190.902 108.906C190.407 107.266 190.146 105.521 190.12 103.672V102.422H185.628C184.899 102.422 184.287 102.161 183.792 101.641C183.271 101.146 183.011 100.534 183.011 99.8047C183.011 99.0755 183.258 98.4635 183.753 97.9688C184.274 97.4479 184.899 97.1875 185.628 97.1875H190.12V93.7891C190.146 93.0859 190.407 92.5 190.902 92.0312C191.396 91.5365 191.995 91.276 192.698 91.25Z" fill="#FF6565"/>
<path d="M188.945 0.817832C190.746 -0.330651 193.085 -0.289436 194.735 1.06784C200.887 6.12918 206.311 12.0508 210.848 18.6582C212.015 20.3582 211.911 22.602 210.724 24.2887C203.444 34.6393 197.61 45.9833 193.396 57.9941C193.025 59.0522 191.74 59.4547 190.841 58.7838C176.259 47.8936 163.798 34.3123 154.102 18.7413C153.512 17.7935 153.996 16.5505 155.067 16.2355C167.01 12.7239 178.412 7.53356 188.945 0.817832Z" fill="#FF6565"/>
<path d="M133.772 18.6293C135.513 14.9028 140.813 14.55 143.048 18.0024C156.506 38.7829 173.169 57.123 192.368 72.2836C195.223 74.5378 194.615 79.122 191.267 80.544C190.727 80.7733 190.15 80.8992 189.564 80.9129L102.443 82.9482C98.0432 83.051 95.6171 77.7844 98.4309 74.4005C112.392 57.6116 124.305 38.8918 133.772 18.6293Z" fill="#FF6565"/>
<path d="M34.6612 129.869C33.8075 129.889 32.9736 130.128 32.2358 130.558C23.3852 135.716 14.1967 140.327 4.71241 144.35C0.97597 145.935 0.368549 151.12 3.61245 153.559C22.7949 167.983 39.1627 186.063 51.8444 206.833C54.0242 210.403 59.4654 210.152 61.2616 206.374C73.5612 180.506 89.8057 157.154 109.18 137.114C112.374 133.81 110.011 128.109 105.417 128.216L34.6612 129.869Z" fill="#FF6565"/>
</svg>
